<?xml version="1.0" encoding="UTF-8" standalone="no"?>
<!-- Created with Inkscape (http://www.inkscape.org/) -->

<svg
   xmlns:dc="http://purl.org/dc/elements/1.1/"
   xmlns:cc="http://creativecommons.org/ns#"
   xmlns:rdf="http://www.w3.org/1999/02/22-rdf-syntax-ns#"
   xmlns:svg="http://www.w3.org/2000/svg"
   xmlns="http://www.w3.org/2000/svg"
   xmlns:xlink="http://www.w3.org/1999/xlink"
   xmlns:sodipodi="http://sodipodi.sourceforge.net/DTD/sodipodi-0.dtd"
   xmlns:inkscape="http://www.inkscape.org/namespaces/inkscape"
   width="1600px"
   height="1200px"
   id="svg2985"
   version="1.1"
   inkscape:version="0.48.4 r9939"
   sodipodi:docname="commasearch.svg">
  <defs
     id="defs2987" />
  <sodipodi:namedview
     id="base"
     pagecolor="#ffffff"
     bordercolor="#666666"
     borderopacity="1.0"
     inkscape:pageopacity="0.0"
     inkscape:pageshadow="2"
     inkscape:zoom="0.42426407"
     inkscape:cx="179.9762"
     inkscape:cy="505.29786"
     inkscape:current-layer="layer1"
     inkscape:document-units="px"
     showgrid="false"
     inkscape:window-width="1920"
     inkscape:window-height="989"
     inkscape:window-x="0"
     inkscape:window-y="27"
     inkscape:window-maximized="1" />
  <metadata
     id="metadata2990">
    <rdf:RDF>
      <cc:Work
         rdf:about="">
        <dc:format>image/svg+xml</dc:format>
        <dc:type
           rdf:resource="http://purl.org/dc/dcmitype/StillImage" />
        <dc:title />
      </cc:Work>
    </rdf:RDF>
  </metadata>
  <g
     id="layer1"
     inkscape:label="Layer 1"
     inkscape:groupmode="layer">
    <rect
       ry="63.598129"
       y="963.6109"
       x="577.02789"
       height="177.20418"
       width="445.94421"
       id="rect3773"
       style="fill:#ffff00;stroke:#000000;stroke-width:10;stroke-miterlimit:20;stroke-opacity:1;stroke-dasharray:none;fill-opacity:1" />
    <text
       xml:space="preserve"
       style="font-size:144px;font-style:normal;font-variant:normal;font-weight:normal;font-stretch:normal;text-align:center;line-height:125%;letter-spacing:0px;word-spacing:0px;writing-mode:lr-tb;text-anchor:middle;fill:#000000;fill-opacity:1;stroke:none;font-family:Nimbus Sans L;-inkscape-font-specification:Nimbus Sans L"
       x="800.81506"
       y="226"
       id="text2993"
       sodipodi:linespacing="125%"><tspan
         sodipodi:role="line"
         id="tspan2995"
         x="800.81506"
         y="226">Comma search</tspan></text>
    <rect
       style="fill:none;stroke:#000000;stroke-width:10;stroke-miterlimit:20;stroke-opacity:1;stroke-dasharray:none"
       id="rect3765"
       width="1266.6666"
       height="503.33334"
       x="166.66667"
       y="433.33334"
       ry="106.66666" />
    <text
       xml:space="preserve"
       style="font-size:72px;font-style:normal;font-variant:normal;font-weight:normal;font-stretch:normal;text-align:center;line-height:125%;letter-spacing:0px;word-spacing:0px;writing-mode:lr-tb;text-anchor:middle;fill:#000000;fill-opacity:1;stroke:none;font-family:Nimbus Sans L;-inkscape-font-specification:Nimbus Sans L"
       x="800.81506"
       y="1073.3333"
       id="text3769"
       sodipodi:linespacing="125%"><tspan
         sodipodi:role="line"
         id="tspan3771"
         x="800.81506"
         y="1073.3333">Search</tspan></text>
    <g
       transform="matrix(0.80729982,0,0,0.80729982,235.77646,493.60277)"
       id="g3033">
      <path
         style="fill:#040565;fill-opacity:0.39770005;fill-rule:evenodd"
         inkscape:connector-curvature="0"
         d="M 101.51,420.19 82.01,39.88 408.89,40.901 c -0.02,20.061 5.69,359.95 5.89,376.59 -103.06,-20.5 -303.92,2.56 -313.27,2.7 z"
         id="path623" />
      <path
         style="fill:#ffffeb;fill-rule:evenodd;stroke:#99bf99;stroke-width:15.8920002"
         inkscape:connector-curvature="0"
         d="M 54.372,394.65 C 48.526,268.54 46.608,69.75 36.834,16.31 c 106.34,15.401 257.76,-13.086 324.92,-0.943 -20.03,58.673 3.73,359.95 3.93,376.58 -103.07,-20.49 -310.88,12.04 -311.31,2.7 z"
         id="path583" />
      <path
         style="fill:#b2d385;fill-opacity:0.4327;fill-rule:evenodd"
         inkscape:connector-curvature="0"
         d="M 75.978,367.16 C 60.712,299.04 61.93,44.01 62.399,35.01 c 100.66,18.276 242.64,-3.342 260.57,-2.983 l -0.51,24.588 c -0.01,20.06 -73.65,143.7 -73.45,160.34 -103.07,-20.5 -163.69,150.06 -173.03,150.2 z"
         id="path622" />
      <path
         style="fill:#3a8b39;fill-rule:evenodd"
         inkscape:connector-curvature="0"
         d="m 79.064,128.25 v 36.57 h 112.54 V 128.25 H 79.064 z"
         id="path627" />
      <path
         style="fill:#ffff00;fill-rule:evenodd"
         inkscape:connector-curvature="0"
         d="m 80.471,184.52 v 30.95 h 111.13 V 184.52 H 80.471 z"
         id="path633" />
      <path
         style="fill:#e1cf80;fill-rule:evenodd"
         inkscape:connector-curvature="0"
         d="m 80.471,223.91 v 36.57 H 171.91 V 223.91 H 80.471 z"
         id="path626" />
      <path
         style="fill:#cbcbe5;fill-rule:evenodd"
         inkscape:connector-curvature="0"
         d="m 215.52,128.25 v 35.17 H 322.43 V 128.25 H 215.52 z"
         id="path628" />
      <path
         style="fill:#d8d2e1;fill-rule:evenodd"
         inkscape:connector-curvature="0"
         d="m 215.52,183.11 v 66.12 H 318.21 V 183.11 H 215.52 z"
         id="path625" />
      <path
         style="fill:#eb7e58;fill-rule:evenodd"
         inkscape:connector-curvature="0"
         d="m 79.064,76.197 v 32.353 h 241.97 V 76.197 H 79.064 z"
         id="path632" />
      <path
         style="fill:#80b26b;fill-rule:evenodd"
         inkscape:connector-curvature="0"
         d="M 316.68,328.89 V 281.58 H 77.15 l -0.004,47.31 h 239.53 z"
         id="path636" />
      <path
         style="fill:#f14300;fill-rule:evenodd"
         inkscape:connector-curvature="0"
         d="m 419.21,322.85 c 0,30.69 -56.05,55.57 -125.2,55.57 -69.15,0 -125.2,-24.88 -125.2,-55.57 -4.22,-84.15 -0.22,-64.01 125.2,-55.57 131.04,-16.88 129.42,-18.73 125.2,55.57 z"
         id="path630" />
      <path
         style="fill:#ffbd4d;fill-rule:evenodd"
         inkscape:connector-curvature="0"
         d="m 419.21,269.39 c 0,30.69 -56.05,55.57 -125.2,55.57 -69.15,0 -125.2,-24.88 -125.2,-55.57 0,-30.69 56.05,-55.56 125.2,-55.56 69.15,0 125.2,24.87 125.2,55.56 z"
         id="path631" />
      <path
         style="fill:#ffff56;fill-rule:evenodd;stroke:#000000"
         inkscape:connector-curvature="0"
         d="m 292.6,261.66 75.97,53.45 v 53.46 c -12.66,1.41 -19.71,9.8 -73.15,9.85 -43.69,0.03 -56.27,-5.63 -64.71,-9.85 v -52.05 l 61.89,-54.86 z"
         id="path635" />
      <path
         style="fill:#b2ff56;fill-rule:evenodd;stroke:#000000"
         inkscape:connector-curvature="0"
         d="m 229.31,315.85 c 34.63,13.28 78.57,14.82 138.96,-0.36 -0.34,12.72 0.94,35.49 0.9,51.55 -16,7.25 -42.06,11.35 -68.78,11.38 -43.68,0.03 -61.24,-5.63 -69.68,-9.85 l -1.4,-52.72 z"
         id="path637" />
    </g>
    <use
       x="0"
       y="0"
       xlink:href="#g3033"
       id="use3109"
       transform="translate(407.76491,56.568542)"
       width="1600"
       height="1200" />
  </g>
</svg>
