<?xml version="1.0" encoding="UTF-8" standalone="no"?>
<!-- Created with Inkscape (http://www.inkscape.org/) -->

<svg
   xmlns:dc="http://purl.org/dc/elements/1.1/"
   xmlns:cc="http://creativecommons.org/ns#"
   xmlns:rdf="http://www.w3.org/1999/02/22-rdf-syntax-ns#"
   xmlns:svg="http://www.w3.org/2000/svg"
   xmlns="http://www.w3.org/2000/svg"
   xmlns:xlink="http://www.w3.org/1999/xlink"
   xmlns:sodipodi="http://sodipodi.sourceforge.net/DTD/sodipodi-0.dtd"
   xmlns:inkscape="http://www.inkscape.org/namespaces/inkscape"
   width="1920px"
   height="1080px"
   id="svg2985"
   version="1.1"
   inkscape:version="0.48.4 r9939"
   sodipodi:docname="network.svg">
  <defs
     id="defs2987" />
  <sodipodi:namedview
     id="base"
     pagecolor="#ffffff"
     bordercolor="#666666"
     borderopacity="1.0"
     inkscape:pageopacity="0.0"
     inkscape:pageshadow="2"
     inkscape:zoom="0.42426407"
     inkscape:cx="632.33223"
     inkscape:cy="603.48485"
     inkscape:document-units="px"
     inkscape:current-layer="layer1"
     showgrid="false"
     inkscape:window-width="1920"
     inkscape:window-height="989"
     inkscape:window-x="0"
     inkscape:window-y="27"
     inkscape:window-maximized="1" />
  <metadata
     id="metadata2990">
    <rdf:RDF>
      <cc:Work
         rdf:about="">
        <dc:format>image/svg+xml</dc:format>
        <dc:type
           rdf:resource="http://purl.org/dc/dcmitype/StillImage" />
        <dc:title />
      </cc:Work>
    </rdf:RDF>
  </metadata>
  <g
     id="layer1"
     inkscape:label="Layer 1"
     inkscape:groupmode="layer">
    <g
       transform="matrix(0.84770985,0,0,0.84770985,404.23342,45.739717)"
       id="g3004"
       inkscape:tile-cx="243.51376"
       inkscape:tile-cy="291.66666"
       inkscape:tile-w="325.24025"
       inkscape:tile-h="345.80358"
       inkscape:tile-x0="84.26159"
       inkscape:tile-y0="122.13282">
      <path
         style="fill:#040565;fill-opacity:0.39770005;fill-rule:evenodd"
         inkscape:connector-curvature="0"
         d="M 101.51,420.19 82.01,39.88 408.89,40.901 c -0.02,20.061 5.69,359.95 5.89,376.59 -103.06,-20.5 -303.92,2.56 -313.27,2.7 z"
         id="path623" />
      <path
         style="fill:#ffffeb;fill-rule:evenodd;stroke:#99bf99;stroke-width:15.8920002"
         inkscape:connector-curvature="0"
         d="M 54.372,394.65 C 48.526,268.54 46.608,69.75 36.834,16.31 c 106.34,15.401 257.76,-13.086 324.92,-0.943 -20.03,58.673 3.73,359.95 3.93,376.58 -103.07,-20.49 -310.88,12.04 -311.31,2.7 z"
         id="path583" />
      <path
         style="fill:#b2d385;fill-opacity:0.4327;fill-rule:evenodd"
         inkscape:connector-curvature="0"
         d="M 75.978,367.16 C 60.712,299.04 61.93,44.01 62.399,35.01 c 100.66,18.276 242.64,-3.342 260.57,-2.983 l -0.51,24.588 c -0.01,20.06 -73.65,143.7 -73.45,160.34 -103.07,-20.5 -163.69,150.06 -173.03,150.2 z"
         id="path622" />
      <path
         style="fill:#3a8b39;fill-rule:evenodd"
         inkscape:connector-curvature="0"
         d="m 79.064,128.25 v 36.57 h 112.54 V 128.25 H 79.064 z"
         id="path627" />
      <path
         style="fill:#ffff00;fill-rule:evenodd"
         inkscape:connector-curvature="0"
         d="m 80.471,184.52 v 30.95 h 111.13 V 184.52 H 80.471 z"
         id="path633" />
      <path
         style="fill:#e1cf80;fill-rule:evenodd"
         inkscape:connector-curvature="0"
         d="m 80.471,223.91 v 36.57 H 171.91 V 223.91 H 80.471 z"
         id="path626" />
      <path
         style="fill:#cbcbe5;fill-rule:evenodd"
         inkscape:connector-curvature="0"
         d="m 215.52,128.25 v 35.17 H 322.43 V 128.25 H 215.52 z"
         id="path628" />
      <path
         style="fill:#d8d2e1;fill-rule:evenodd"
         inkscape:connector-curvature="0"
         d="m 215.52,183.11 v 66.12 H 318.21 V 183.11 H 215.52 z"
         id="path625" />
      <path
         style="fill:#eb7e58;fill-rule:evenodd"
         inkscape:connector-curvature="0"
         d="m 79.064,76.197 v 32.353 h 241.97 V 76.197 H 79.064 z"
         id="path632" />
      <path
         style="fill:#80b26b;fill-rule:evenodd"
         inkscape:connector-curvature="0"
         d="M 316.68,328.89 V 281.58 H 77.15 l -0.004,47.31 h 239.53 z"
         id="path636" />
      <path
         style="fill:#f14300;fill-rule:evenodd"
         inkscape:connector-curvature="0"
         d="m 419.21,322.85 c 0,30.69 -56.05,55.57 -125.2,55.57 -69.15,0 -125.2,-24.88 -125.2,-55.57 -4.22,-84.15 -0.22,-64.01 125.2,-55.57 131.04,-16.88 129.42,-18.73 125.2,55.57 z"
         id="path630" />
      <path
         style="fill:#ffbd4d;fill-rule:evenodd"
         inkscape:connector-curvature="0"
         d="m 419.21,269.39 c 0,30.69 -56.05,55.57 -125.2,55.57 -69.15,0 -125.2,-24.88 -125.2,-55.57 0,-30.69 56.05,-55.56 125.2,-55.56 69.15,0 125.2,24.87 125.2,55.56 z"
         id="path631" />
      <path
         style="fill:#ffff56;fill-rule:evenodd;stroke:#000000"
         inkscape:connector-curvature="0"
         d="m 292.6,261.66 75.97,53.45 v 53.46 c -12.66,1.41 -19.71,9.8 -73.15,9.85 -43.69,0.03 -56.27,-5.63 -64.71,-9.85 v -52.05 l 61.89,-54.86 z"
         id="path635" />
      <path
         style="fill:#b2ff56;fill-rule:evenodd;stroke:#000000"
         inkscape:connector-curvature="0"
         d="m 229.31,315.85 c 34.63,13.28 78.57,14.82 138.96,-0.36 -0.34,12.72 0.94,35.49 0.9,51.55 -16,7.25 -42.06,11.35 -68.78,11.38 -43.68,0.03 -61.24,-5.63 -69.68,-9.85 l -1.4,-52.72 z"
         id="path637" />
    </g>
    <use
       x="0"
       y="0"
       inkscape:tiled-clone-of="#g3004"
       xlink:href="#g3004"
       transform="translate(1014.2065,185.22848)"
       id="use3084"
       width="1920"
       height="1080" />
    <use
       x="0"
       y="0"
       inkscape:tiled-clone-of="#g3004"
       xlink:href="#g3004"
       transform="translate(-348.9446,477.97109)"
       id="use3086"
       width="1920"
       height="1080" />
    <text
       xml:space="preserve"
       style="font-size:72px;font-style:normal;font-variant:normal;font-weight:normal;font-stretch:normal;text-align:start;line-height:125%;letter-spacing:0px;word-spacing:0px;writing-mode:lr-tb;text-anchor:start;fill:#000000;fill-opacity:1;stroke:none;font-family:Nimbus Sans L;-inkscape-font-specification:Nimbus Sans L"
       x="421.90704"
       y="483.67328"
       id="text3088"
       sodipodi:linespacing="125%"><tspan
         sodipodi:role="line"
         id="tspan3090"
         x="421.90704"
         y="483.67328">nrow: 230</tspan></text>
    <text
       xml:space="preserve"
       style="font-size:72px;font-style:normal;font-variant:normal;font-weight:normal;font-stretch:normal;text-align:start;line-height:125%;letter-spacing:0px;word-spacing:0px;writing-mode:lr-tb;text-anchor:start;fill:#000000;fill-opacity:1;stroke:none;font-family:Nimbus Sans L;-inkscape-font-specification:Nimbus Sans L"
       x="1514.5995"
       y="662.88916"
       id="text3088-8"
       sodipodi:linespacing="125%"><tspan
         sodipodi:role="line"
         id="tspan3090-1"
         x="1514.5995"
         y="662.88916">nrow: 50</tspan></text>
    <text
       xml:space="preserve"
       style="font-size:72px;font-style:normal;font-variant:normal;font-weight:normal;font-stretch:normal;text-align:start;line-height:125%;letter-spacing:0px;word-spacing:0px;writing-mode:lr-tb;text-anchor:start;fill:#000000;fill-opacity:1;stroke:none;font-family:Nimbus Sans L;-inkscape-font-specification:Nimbus Sans L"
       x="113.13708"
       y="971.5769"
       id="text3113"
       sodipodi:linespacing="125%"><tspan
         sodipodi:role="line"
         id="tspan3115"
         x="113.13708"
         y="971.5769">nrow: 9001</tspan></text>
    <path
       style="fill:none;stroke:#000000;stroke-width:10;stroke-linecap:butt;stroke-linejoin:miter;stroke-miterlimit:4;stroke-opacity:1;stroke-dasharray:none"
       d="M 841.45707,200.40079 1407.1425,285.2536"
       id="path3125"
       inkscape:connector-curvature="0"
       sodipodi:nodetypes="cc" />
    <text
       xml:space="preserve"
       style="font-size:72px;font-style:normal;font-variant:normal;font-weight:normal;font-stretch:normal;text-align:start;line-height:125%;letter-spacing:0px;word-spacing:0px;writing-mode:lr-tb;text-anchor:start;fill:#000000;fill-opacity:1;stroke:none;font-family:Nimbus Sans L;-inkscape-font-specification:Nimbus Sans L"
       x="873.38586"
       y="323.12521"
       id="text3895"
       sodipodi:linespacing="125%"><tspan
         sodipodi:role="line"
         id="tspan3897"
         x="873.38586"
         y="323.12521">index: name</tspan><tspan
         sodipodi:role="line"
         x="873.38586"
         y="413.12521"
         id="tspan3905">overlap: 2</tspan></text>
    <text
       xml:space="preserve"
       style="font-size:72px;font-style:normal;font-variant:normal;font-weight:normal;font-stretch:normal;text-align:start;line-height:125%;letter-spacing:0px;word-spacing:0px;writing-mode:lr-tb;text-anchor:start;fill:#000000;fill-opacity:1;stroke:none;font-family:Nimbus Sans L;-inkscape-font-specification:Nimbus Sans L"
       x="539.75812"
       y="738.23175"
       id="text3899"
       sodipodi:linespacing="125%"><tspan
         sodipodi:role="line"
         id="tspan3901"
         x="539.75812"
         y="738.23175">index: address, postcode</tspan><tspan
         sodipodi:role="line"
         x="539.75812"
         y="828.23175"
         id="tspan3907">overlap: 50</tspan></text>
    <path
       sodipodi:nodetypes="cc"
       inkscape:connector-curvature="0"
       id="path3903"
       d="M 440.76323,666.73424 1390.6433,565.38227"
       style="fill:none;stroke:#000000;stroke-width:10;stroke-linecap:butt;stroke-linejoin:miter;stroke-miterlimit:4;stroke-opacity:1;stroke-dasharray:none" />
  </g>
</svg>
